# xmcd
#
# Track frame offsets:
#	150
#	14280
#	24102
#	42182
#	51752
#	68800
#	84987
#	98467
#	113877
#	127877
#	140750
#	153237
#	164185
#	183007
#
# Disc length: 2635 seconds
#
# Revision: 0
# Processed by: cddbd v1.5.2PL0 Copyright (c) Steve Scherf et al.
# Submitted via: EasyCDDAExtractor 16.0.6.1
#
DISCID=a70a490e
DTITLE=Τα παιδιά απ' την Πάτρα - Μεγάλες επιτυχίες-Παιδιά Πάτρας
DYEAR=1993
DGENRE=Λαϊκή
TTITLE0=Δεν θέλω την συμπόνοια κανενός [Άκης Πάνου-Στρ. Ατταλίδης]
TTITLE1=Ένοχος [Χρ. Παπαδόπουλος-Κλέων Γρηγοριάδης]
TTITLE2=Σε παίρνω στο τηλέφωνο [Λάμπρος Καρελάς-Βασ. Αλαγιάννη]
TTITLE3=Μη μού ζητάς [Χρ. Παπαδόπουλος-Κλέων Γρηγοριάδης]
TTITLE4=Μετρήστε τις πληγές [Βασ. Τσιτσάνης]
TTITLE5=Εγώ πονώ για σένα [Στ. Καζαντζίδης-Στ. Κορσαβίδης]
TTITLE6=Οι μπύρες [Βαγγ. Δεληκούρας-Ρούλα Ψωράκη]
TTITLE7=Άνθρωπε δυστυχισμένε Μ. Χιώτης-Ε. Παπαγιαννοπούλου]
TTITLE8=Κόκκινα τριαντάφυλλα [Βασ. Καραπατάκης-Χρ. Κολοκοτρώνης]
TTITLE9=Κατηγόρα με [Δημ. Γκούτης]
TTITLE10=Απ' τα λόγια τα πολλά [Χρ. Παπαδόπουλος-Γιάννης Μπαγούλης]
TTITLE11=Το άλλοθι [Βαγγ. Δεληκούρας-Αλεξάνδρα Ζαχαρία]
TTITLE12=Είν' η αγάπη θεία δίκη [Χρ. Παπαδόπουλος-Μιχ. Λαμπρίδης]
TTITLE13=Έφταιγε η καταγωγή [Χρ. Παπαδόπουλος]
EXTD=
EXTT0=
EXTT1=
EXTT2=
EXTT3=
EXTT4=
EXTT5=
EXTT6=
EXTT7=
EXTT8=
EXTT9=
EXTT10=
EXTT11=
EXTT12=
EXTT13=
PLAYORDER=
